<?xml version="1.0" standalone="no"?>
<!DOCTYPE svg PUBLIC "-//W3C//DTD SVG 1.1//EN" "http://www.w3.org/Graphics/SVG/1.1/DTD/svg11.dtd" >
<svg xmlns="http://www.w3.org/2000/svg" xmlns:xlink="http://www.w3.org/1999/xlink" version="1.1">
<metadata>
Created by FontForge 20170812 at Wed Oct 12 21:51:20 2011
 By www-data
weknow (c) (weknow.deviantart.com). 2011. All Rights Reserved
</metadata>
<defs>
<font id="SUPERHERO" horiz-adv-x="1139" >
  <font-face 
    font-family="SUPERHERO"
    font-weight="400"
    font-stretch="normal"
    units-per-em="2048"
    panose-1="2 0 0 0 0 0 0 0 0 0"
    ascent="1638"
    descent="-410"
    x-height="1068"
    cap-height="1344"
    bbox="50 -331 1758 1687"
    underline-thickness="150"
    underline-position="-292"
    unicode-range="U+0020-F005"
  />
<missing-glyph horiz-adv-x="1124" 
d="M50 0v1280h1024v-1280h-1024zM82 32h960v1216h-960v-1216z" />
    <glyph glyph-name=".notdef" horiz-adv-x="1124" 
d="M50 0v1280h1024v-1280h-1024zM82 32h960v1216h-960v-1216z" />
    <glyph glyph-name=".null" horiz-adv-x="0" 
 />
    <glyph glyph-name="nonmarkingreturn" horiz-adv-x="569" 
 />
    <glyph glyph-name="space" unicode=" " horiz-adv-x="569" 
 />
    <glyph glyph-name="space" unicode="&#xa0;" horiz-adv-x="569" 
 />
    <glyph glyph-name="exclam" unicode="!" horiz-adv-x="376" 
d="M58 1344h260l8 -8v-780l-8 -8h-260l-8 8v780zM58 336h260l8 -8v-320l-8 -8h-260l-8 8v320z" />
    <glyph glyph-name="quotedbl" unicode="&#x22;" horiz-adv-x="720" 
d="M58 1348h260l8 -8v-324q-56 -156 -68 -156h-132v4l60 148h-128l-8 8v320zM402 1348h260l8 -8v-320q-53 -160 -68 -160h-124l-8 8l60 144h-128l-8 8v320z" />
    <glyph glyph-name="numbersign" unicode="#" horiz-adv-x="1444" 
d="M234 1344h264l8 -8v-168h432v168l8 8h264l8 -8v-168h168l8 -8v-264l-8 -8h-168v-432h168l8 -8v-264l-8 -8h-168v-168l-8 -8h-264l-8 8v168h-432v-168l-8 -8h-264l-8 8v168h-168l-8 8v264l8 8h168v432h-168l-8 8v264l8 8h168v168zM506 888v-432h432v432h-432z" />
    <glyph glyph-name="dollar" unicode="$" horiz-adv-x="1088" 
d="M414 1684h260l8 -8v-324h348l8 -8l-276 -272h-272q-132 0 -160 -96l-4 -32q0 -110 132 -128h160q293 0 404 -288q16 -54 16 -100v-32q0 -236 -256 -368l-100 -24v-327l-8 -8h-260l-8 8v323h-348l-8 8l276 272h272q132 0 160 96l4 32q0 111 -132 128h-160q-293 0 -404 288
q-16 55 -16 100v32q0 237 256 368l100 24v328z" />
    <glyph glyph-name="percent" unicode="%" horiz-adv-x="1088" 
d="M278 1344q100 0 172 -144l8 -96v-8q0 -172 -112 -224q-43 -24 -92 -24h-4q-133 0 -192 144q-8 16 -8 44v120q0 132 168 188h60zM854 1344l4 -4h4l-360 -1340h-268l-4 4h-4l360 1340h268zM190 1148v-96q11 -64 60 -64q64 13 64 56v104q-13 56 -56 56h-4q-52 0 -64 -56z
M834 496h4q133 0 192 -144q8 -16 8 -44v-120q0 -131 -168 -188h-60q-100 0 -172 144l-8 96v16q0 161 112 216q43 24 92 24zM774 300v-104q13 -56 56 -56h4q55 0 64 60v92q-11 64 -60 64q-64 -13 -64 -56z" />
    <glyph glyph-name="ampersand" unicode="&#x26;" horiz-adv-x="1168" 
d="M442 1344h204q219 0 348 -220q40 -79 40 -128v-4h8v-100l-28 -100l-4 -12q37 16 104 28l4 -4v-276q-76 -55 -76 -108v-28q0 -59 76 -108v-280q-97 0 -220 96q-110 -100 -252 -100h-204q-207 0 -340 204q-52 94 -52 180v40q0 127 96 244v8q-96 117 -96 244v40
q0 176 172 312q106 72 220 72zM326 940q0 -110 132 -128h184q120 26 120 128q0 87 -100 124l-64 4h-108q-132 0 -160 -96zM326 404q0 -86 100 -124l64 -4h108q132 0 160 96l4 32q0 102 -120 128h-184q-132 -18 -132 -128z" />
    <glyph glyph-name="quotesingle" unicode="'" horiz-adv-x="376" 
d="M58 1348h260l8 -8v-320q-53 -160 -68 -160h-132l60 152h-128l-8 8v320z" />
    <glyph glyph-name="parenleft" unicode="(" horiz-adv-x="648" 
d="M590 1687l4 -4h4q-272 -560 -272 -1004t272 -1004l-4 -4h-268q-84 145 -192 460q-84 300 -84 508v80q0 408 272 968h268z" />
    <glyph glyph-name="parenright" unicode=")" horiz-adv-x="648" 
d="M322 1686q124 -232 188 -464q88 -267 88 -504v-80q0 -408 -272 -967h-268l-4 4h-4q272 559 272 1003t-272 1004l4 4h268z" />
    <glyph glyph-name="asterisk" unicode="*" horiz-adv-x="820" 
d="M278 1347h264l8 -8v-84h4l80 44l136 -240l-80 -52q17 0 80 -48q-129 -229 -140 -236q-214 124 -224 124l-220 -124l-136 240q70 44 80 44l-80 56q125 222 140 236l80 -44v84z" />
    <glyph glyph-name="plus" unicode="+" horiz-adv-x="892" 
d="M314 1071h264l8 -8v-248h248l8 -8v-264l-8 -8h-248v-248l-8 -8h-264l-8 8v248h-248l-8 8v264l8 8h248v248z" />
    <glyph glyph-name="comma" unicode="," horiz-adv-x="376" 
d="M58 336h260l8 -8v-320q-53 -159 -68 -159h-132l60 151h-128l-8 8v320z" />
    <glyph glyph-name="hyphen" unicode="-" horiz-adv-x="892" 
d="M58 819h776l8 -8v-260l-8 -8h-776l-8 8v260z" />
    <glyph glyph-name="hyphen" unicode="&#xad;" horiz-adv-x="892" 
d="M58 819h776l8 -8v-260l-8 -8h-776l-8 8v260z" />
    <glyph glyph-name="period" unicode="." horiz-adv-x="376" 
d="M58 336h260l8 -8v-320l-8 -8h-260l-8 8v320z" />
    <glyph glyph-name="slash" unicode="/" horiz-adv-x="736" 
d="M678 1344l8 -8l-360 -1336h-268l-8 8l360 1336h268z" />
    <glyph glyph-name="zero" unicode="0" horiz-adv-x="1088" 
d="M442 1344h204q244 0 372 -268q20 -69 20 -124v-560q0 -244 -268 -372q-69 -20 -124 -20h-204q-244 0 -372 268q-20 69 -20 124v560q0 244 268 372q69 20 124 20zM326 912v-480q0 -156 164 -156h108q164 0 164 156v480q0 156 -164 156h-108q-164 0 -164 -156z" />
    <glyph glyph-name="one" unicode="1" horiz-adv-x="504" 
d="M446 1344l8 -8v-1328l-8 -8h-260l-8 8v948q-67 -16 -124 -20l-4 4v268q0 10 48 16q80 46 80 116l4 4h264z" />
    <glyph glyph-name="two" unicode="2" horiz-adv-x="1088" 
d="M442 1344h204q244 0 372 -268q20 -69 20 -124v-28q0 -49 -144 -216l-340 -432h208l272 -272v-4h-776q-88 0 -128 100l-4 40q0 67 116 192l512 648q-28 88 -156 88h-108q-132 0 -160 -96q0 -36 -12 -36h-260l-8 8v8q0 244 268 372q69 20 124 20z" />
    <glyph glyph-name="three" unicode="3" horiz-adv-x="1084" 
d="M50 1340v4h592q244 0 372 -268q20 -69 20 -124v-32q0 -127 -96 -244v-8q96 -117 96 -244v-32q0 -244 -268 -372q-69 -20 -124 -20h-592v4l272 272h272q132 0 160 96l4 32q0 108 -136 132l-264 272v4h268q132 18 132 128q0 87 -100 124l-64 4h-272z" />
    <glyph glyph-name="four" unicode="4" horiz-adv-x="1088" 
d="M58 1344h260l8 -8v-524h436v524l8 8h260l8 -8v-1328l-8 -8h-260l-8 8v524h-436l-276 276v528z" />
    <glyph glyph-name="five" unicode="5" horiz-adv-x="1088" 
d="M58 1344h972l8 -8v-260l-8 -8h-704v-256h292q293 0 404 -288q16 -55 16 -100v-32q0 -244 -268 -372q-69 -20 -124 -20h-592v4l272 272h272q132 0 160 96l4 32q0 110 -132 128h-304l-276 276v528z" />
    <glyph glyph-name="six" unicode="6" horiz-adv-x="1088" 
d="M442 1344h592v-4l-272 -272h-272q-164 0 -164 -156v-100h292q293 0 404 -288q16 -55 16 -100v-32q0 -244 -268 -372q-69 -20 -124 -20h-204q-244 0 -372 268q-20 69 -20 124v560q0 244 268 372q69 20 124 20zM326 804v-372q0 -156 164 -156h108q132 0 160 96l4 32
q0 110 -132 128h-28z" />
    <glyph glyph-name="seven" unicode="7" horiz-adv-x="1084" 
d="M50 1340v4h976l8 -8v-300q0 -313 -264 -468q-172 -120 -172 -272l4 -264l4 -28l-4 -4h-276l-8 8v204q0 359 144 472q23 28 212 172q84 86 84 212h-436z" />
    <glyph glyph-name="eight" unicode="8" horiz-adv-x="1088" 
d="M442 1344h204q207 0 340 -204q52 -94 52 -180v-40q0 -127 -96 -244v-8q96 -117 96 -244v-40q0 -176 -172 -312q-106 -72 -220 -72h-204q-207 0 -340 204q-52 94 -52 180v40q0 127 96 244v8q-96 117 -96 244v40q0 176 172 312q106 72 220 72zM326 940q0 -110 132 -128h172
q132 18 132 128q0 87 -100 124l-64 4h-108q-132 0 -160 -96zM326 404q0 -87 100 -124l64 -4h108q132 0 160 96l4 32q0 110 -132 128h-172q-132 -18 -132 -128z" />
    <glyph glyph-name="nine" unicode="9" horiz-adv-x="1088" 
d="M442 1344h204q244 0 372 -268q20 -69 20 -124v-560q0 -244 -268 -372q-69 -20 -124 -20h-592v4l272 272h272q164 0 164 156v100h-292q-293 0 -404 288q-16 55 -16 100v32q0 244 268 372q69 20 124 20zM326 940q0 -110 132 -128h28l276 -272v372q0 156 -164 156h-108
q-132 0 -160 -96z" />
    <glyph glyph-name="colon" unicode=":" horiz-adv-x="376" 
d="M58 1344h260l8 -8v-320l-8 -8h-260l-8 8v320zM58 336h260l8 -8v-320l-8 -8h-260l-8 8v320z" />
    <glyph glyph-name="semicolon" unicode=";" horiz-adv-x="376" 
d="M58 1347h260l8 -8v-320l-8 -8h-260l-8 8v320zM58 343h260l8 -8v-324q-53 -160 -68 -160h-132l60 152h-128l-8 8v324z" />
    <glyph glyph-name="semicolon" unicode="&#x37e;" horiz-adv-x="376" 
d="M58 1347h260l8 -8v-320l-8 -8h-260l-8 8v320zM58 343h260l8 -8v-324q-53 -160 -68 -160h-132l60 152h-128l-8 8v324z" />
    <glyph glyph-name="less" unicode="&#x3c;" horiz-adv-x="732" 
d="M410 1096h272v-4l-352 -416l352 -416v-4h-272l-360 420z" />
    <glyph glyph-name="equal" unicode="=" horiz-adv-x="892" 
d="M58 1092h776l8 -8v-264l-8 -8h-776l-8 8v264zM58 540h776l8 -8v-260l-8 -8h-776l-8 8v260z" />
    <glyph glyph-name="greater" unicode="&#x3e;" horiz-adv-x="732" 
d="M50 1092v4h272l360 -420l-360 -420h-272v4l352 416z" />
    <glyph glyph-name="question" unicode="?" horiz-adv-x="1088" 
d="M442 1344h204q244 0 372 -268q20 -69 20 -124v-20q0 -60 -112 -184q-194 -254 -248 -312h-264l-8 8v96l348 440q-28 88 -156 88h-108q-132 0 -160 -96q0 -36 -12 -36h-260l-8 8v8q0 244 268 372q69 20 124 20zM414 336h260l8 -8v-320l-8 -8h-260l-8 8v320z" />
    <glyph glyph-name="at" unicode="@" horiz-adv-x="1440" 
d="M442 1348h572q189 0 332 -216q44 -94 44 -172v-288q0 -218 -216 -348q-87 -44 -148 -44v-4h40l272 -272v-4h-896q-230 0 -364 248q-28 85 -28 128v596q0 163 172 304q107 72 220 72zM338 996l4 -320v-4l-4 -316q28 -80 156 -80h272v4q-156 0 -300 176q-64 114 -64 180
q0 135 152 276q105 88 300 88h244q-29 72 -152 72h-452q-123 0 -156 -76zM686 640q37 -84 120 -84h176q132 0 132 164h-284q-108 0 -144 -80z" />
    <glyph glyph-name="A" unicode="A" horiz-adv-x="1088" 
d="M734 1344h296l8 -8v-1328l-8 -8h-260l-8 8v524l-196 196l-244 -728h-264l-8 8q372 1070 416 1176q77 160 268 160zM598 812h164v256q-98 0 -124 -136z" />
    <glyph glyph-name="B" unicode="B" horiz-adv-x="1088" 
d="M58 1344h588q244 0 372 -268q20 -69 20 -124v-32q0 -127 -96 -244v-8q96 -117 96 -244v-32q0 -244 -268 -372q-69 -20 -124 -20h-588l-8 8v1328zM326 1068v-792h272q132 0 160 96l4 32q0 108 -136 132l-264 272v4h268q132 18 132 128q0 87 -100 124l-64 4h-272z" />
    <glyph glyph-name="C" unicode="C" horiz-adv-x="1084" 
d="M442 1344h592v-4l-272 -272h-272q-164 0 -164 -156v-480q0 -156 164 -156h272l272 -272v-4h-592q-244 0 -372 268q-20 69 -20 124v560q0 244 268 372q69 20 124 20z" />
    <glyph glyph-name="D" unicode="D" horiz-adv-x="1088" 
d="M58 1344h588q244 0 372 -268q20 -69 20 -124v-560q0 -244 -268 -372q-69 -20 -124 -20h-588l-8 8v1328zM326 1068v-792h272q164 0 164 156v480q0 156 -164 156h-272z" />
    <glyph glyph-name="E" unicode="E" horiz-adv-x="1084" 
d="M442 1344h592v-4l-272 -272h-272q-132 0 -160 -96l-4 -32q0 -110 132 -128h268v-4q-261 -276 -276 -276q-124 -23 -124 -128q0 -87 100 -124l64 -4h272l272 -272v-4h-592q-244 0 -372 268q-20 69 -20 124v32q0 127 96 244v8q-96 117 -96 244v32q0 244 268 372
q69 20 124 20z" />
    <glyph glyph-name="F" unicode="F" horiz-adv-x="1084" 
d="M442 1344h592v-4l-272 -272h-272q-132 0 -160 -96l-4 -32q0 -110 132 -128h268v-4q-261 -276 -276 -276q-124 -18 -124 -140v-384l-8 -8h-260l-8 8v416q0 127 96 244v8q-96 117 -96 244v32q0 244 268 372q69 20 124 20z" />
    <glyph glyph-name="G" unicode="G" horiz-adv-x="1088" 
d="M442 1344h592v-4l-272 -272h-272q-164 0 -164 -156v-100h292q293 0 404 -288q16 -55 16 -100v-32q0 -244 -268 -372q-69 -20 -124 -20h-204q-244 0 -372 268q-20 69 -20 124v560q0 244 268 372q69 20 124 20zM326 804v-372q0 -156 164 -156h108q132 0 160 96l4 32
q0 110 -132 128h-28z" />
    <glyph glyph-name="H" unicode="H" horiz-adv-x="1088" 
d="M58 1344h260l8 -8v-524h436v524l8 8h260l8 -8v-1328l-8 -8h-260l-8 8v524h-160l-276 272v-796l-8 -8h-260l-8 8v1328z" />
    <glyph glyph-name="I" unicode="I" horiz-adv-x="376" 
d="M58 1344h260l8 -8v-1328l-8 -8h-260l-8 8v1328z" />
    <glyph glyph-name="J" unicode="J" horiz-adv-x="1084" 
d="M766 1344h260l8 -8v-944q0 -244 -268 -372q-69 -20 -124 -20h-592v4l272 272h272q164 0 164 156v904z" />
    <glyph glyph-name="K" unicode="K" horiz-adv-x="1088" 
d="M58 1344h260l8 -8v-524h304q90 0 124 88l8 68v368l8 8h260l8 -8v-416q0 -127 -96 -244v-8q96 -117 96 -244v-416l-8 -8h-260l-8 8v368q0 118 -84 148l-48 8h-28l-276 272v-796l-8 -8h-260l-8 8v1328z" />
    <glyph glyph-name="L" unicode="L" horiz-adv-x="1084" 
d="M58 1344h260l8 -8v-904q0 -156 164 -156h272l272 -272v-4h-592q-244 0 -372 268q-20 69 -20 124v944z" />
    <glyph glyph-name="M" unicode="M" horiz-adv-x="1808" 
d="M58 1344h296q217 0 292 -212l256 -736h4q232 680 284 800q81 148 264 148h296l8 -8v-1328l-8 -8h-260l-8 8v1060q-83 0 -112 -88l-328 -976l-4 -4h-264q-13 0 -100 280l-248 728q-30 60 -100 60v-1060l-8 -8h-260l-8 8v1328z" />
    <glyph glyph-name="N" unicode="N" horiz-adv-x="1092" 
d="M58 1344h296q222 0 296 -228l112 -324h4v544l8 8h260l8 -8v-1328l-8 -8h-264q-9 0 -108 308l-244 716q-39 44 -92 44v-1060l-8 -8h-260l-8 8v1328z" />
    <glyph glyph-name="O" unicode="O" horiz-adv-x="1088" 
d="M442 1344h204q244 0 372 -268q20 -69 20 -124v-560q0 -244 -268 -372q-69 -20 -124 -20h-204q-244 0 -372 268q-20 69 -20 124v560q0 244 268 372q69 20 124 20zM326 912v-480q0 -156 164 -156h108q164 0 164 156v480q0 156 -164 156h-108q-164 0 -164 -156z" />
    <glyph glyph-name="P" unicode="P" horiz-adv-x="1088" 
d="M442 1344h204q244 0 372 -268q20 -69 20 -124v-32q0 -197 -200 -332q-100 -56 -208 -56q-38 42 -304 272v-796l-8 -8h-260l-8 8v944q0 244 268 372q69 20 124 20zM326 912v-100h304q132 18 132 128q0 87 -100 124l-64 4h-108q-164 0 -164 -156z" />
    <glyph glyph-name="Q" unicode="Q" horiz-adv-x="1088" 
d="M442 1344h204q244 0 372 -268q20 -69 20 -124v-560q0 -166 -144 -300v-84l-8 -8h-12q-51 0 -112 20q-49 -20 -116 -20h-204q-244 0 -372 268q-20 69 -20 124v560q0 244 268 372q69 20 124 20zM326 912v-480q0 -156 164 -156h16q-20 72 -20 120v316h4l272 -268v468
q0 156 -164 156h-108q-164 0 -164 -156z" />
    <glyph glyph-name="R" unicode="R" horiz-adv-x="1088" 
d="M442 1344h204q244 0 372 -268q20 -69 20 -124v-32q0 -127 -96 -244v-8q96 -117 96 -244v-416l-8 -8h-260l-8 8v368q0 118 -84 148l-48 8h-28l-276 272v-796l-8 -8h-260l-8 8v944q0 244 268 372q69 20 124 20zM326 912v-100h304q132 18 132 128q0 87 -100 124l-64 4h-108
q-164 0 -164 -156z" />
    <glyph glyph-name="S" unicode="S" horiz-adv-x="1088" 
d="M442 1344h592v-4l-272 -272h-272q-132 0 -160 -96l-4 -32q0 -110 132 -128h160q293 0 404 -288q16 -55 16 -100v-32q0 -244 -268 -372q-69 -20 -124 -20h-592v4l272 272h272q132 0 160 96l4 32q0 110 -132 128h-160q-293 0 -404 288q-16 55 -16 100v32q0 244 268 372
q69 20 124 20z" />
    <glyph glyph-name="T" unicode="T" horiz-adv-x="1176" 
d="M322 1344h804v-4q-267 -276 -284 -276q-96 0 -116 -132v-924l-8 -8h-260l-8 8v948q0 52 20 112h-420v4z" />
    <glyph glyph-name="U" unicode="U" horiz-adv-x="1088" 
d="M58 1344h260l8 -8v-904q0 -156 164 -156h108q164 0 164 156v904l8 8h260l8 -8v-944q0 -244 -268 -372q-69 -20 -124 -20h-204q-244 0 -372 268q-20 69 -20 124v944z" />
    <glyph glyph-name="V" unicode="V" horiz-adv-x="1088" 
d="M58 1344h260l8 -8v-1060q100 0 128 148l312 920h264l8 -8q-372 -1070 -416 -1176q-78 -160 -268 -160h-296l-8 8v1328z" />
    <glyph glyph-name="W" unicode="W" horiz-adv-x="1808" 
d="M58 1344h260l8 -8v-1060q83 0 112 88l328 976l4 4h264q14 0 100 -280l248 -728q30 -60 100 -60v1060l8 8h260l8 -8v-1328l-8 -8h-296q-217 0 -292 212l-256 736h-4q-232 -680 -284 -800q-81 -148 -264 -148h-296l-8 8v1328z" />
    <glyph glyph-name="X" unicode="X" horiz-adv-x="1088" 
d="M58 1344h260l8 -8v-368q0 -118 84 -148l48 -8h172q90 0 124 88l8 68v368l8 8h260l8 -8v-416q0 -127 -96 -244v-8q96 -117 96 -244v-416l-8 -8h-260l-8 8v368q0 118 -84 148l-48 8h-172q-90 0 -124 -88l-8 -68v-368l-8 -8h-260l-8 8v416q0 127 96 244v8q-96 117 -96 244
v416z" />
    <glyph glyph-name="Y" unicode="Y" horiz-adv-x="1088" 
d="M58 1344h260l8 -8v-368q0 -118 84 -148l48 -8h148q156 0 156 156v368l8 8h260l8 -8v-416q0 -212 -228 -348q-60 -24 -144 -44q-64 -37 -64 -136v-384l-8 -8h-264l-8 8v356q0 127 24 184q-136 40 -224 156q-72 113 -72 216v416z" />
    <glyph glyph-name="Z" unicode="Z" horiz-adv-x="1088" 
d="M54 1340v4h976l8 -8v-284q0 -329 -412 -476q-236 -105 -276 -196q-20 -48 -24 -104h436l272 -272v-4h-976l-8 8v288q0 334 428 488q284 108 284 284h-436z" />
    <glyph glyph-name="bracketleft" unicode="[" horiz-adv-x="504" 
d="M442 1686h4l8 -8v-264q0 -7 -52 -16q-76 -39 -76 -132v-1056q0 -108 100 -140q28 0 28 -8v-263l-8 -8h-4q-244 0 -372 267q-20 69 -20 124v1112q0 244 268 372q69 20 124 20z" />
    <glyph glyph-name="backslash" unicode="\" horiz-adv-x="736" 
d="M322 1344q11 0 80 -284l284 -1056l-4 -4h-268q-11 0 -80 284l-284 1056l4 4h268z" />
    <glyph glyph-name="bracketright" unicode="]" horiz-adv-x="504" 
d="M58 1686h4q244 0 372 -268q20 -69 20 -124v-1112q0 -243 -268 -371q-69 -20 -124 -20h-4l-8 8v263q0 7 52 16q76 40 76 132v1056q0 108 -100 140q-28 0 -28 8v264z" />
    <glyph glyph-name="asciicircum" unicode="^" horiz-adv-x="824" 
d="M542 1346q12 0 88 -244l144 -424l-4 -4h-256q-15 17 -100 276h-4q-85 -259 -100 -276h-252l-8 8l228 664h264z" />
    <glyph glyph-name="underscore" unicode="_" horiz-adv-x="1444" 
d="M58 2h1328l8 -7v-260l-8 -8h-1328l-8 8v260z" />
    <glyph glyph-name="grave" unicode="`" horiz-adv-x="596" 
d="M318 1346q8 0 200 -588l28 -80l-4 -4h-124q-6 0 -108 172q-172 247 -240 440l-20 56l4 4h264z" />
    <glyph glyph-name="a" unicode="a" horiz-adv-x="1088" 
d="M1030 1068l8 -8v-1052l-8 -8h-972l-8 8v288q0 339 440 492q272 111 272 276l4 4h264zM326 276h436v360h-4q-328 -148 -368 -200q-64 -75 -64 -160z" />
    <glyph glyph-name="b" unicode="b" horiz-adv-x="1088" 
d="M58 1344h260l8 -8v-232q0 -189 152 -252q72 -41 304 -148q256 -143 256 -408v-288l-8 -8h-972l-8 8v1328zM326 636v-360h436q0 192 -328 308l-104 52h-4z" />
    <glyph glyph-name="c" unicode="c" horiz-adv-x="1088" 
d="M1030 1068l8 -8v-20q0 -309 -408 -464q-150 -59 -252 -152q-52 -76 -52 -148h436l272 -272v-4h-976l-8 8v288q0 339 440 492q272 111 272 276l4 4h264z" />
    <glyph glyph-name="d" unicode="d" horiz-adv-x="1088" 
d="M770 1344h260l8 -8v-1328l-8 -8h-972l-8 8v288q0 333 420 484q288 115 288 268l4 56v232zM326 276h436v360h-4q-337 -152 -368 -200q-64 -75 -64 -160z" />
    <glyph glyph-name="e" unicode="e" horiz-adv-x="1084" 
d="M442 1068h204q236 0 368 -256l20 -76q0 -100 -132 -240q-124 -100 -252 -100h-312v-44q35 -76 144 -76h280l272 -272v-4h-592q-237 0 -364 252q-28 76 -28 124v300q0 244 268 372q69 20 124 20zM330 672h268q107 0 140 56v8q-36 56 -132 56h-124q-122 0 -152 -96v-24z
" />
    <glyph glyph-name="f" unicode="f" horiz-adv-x="1088" 
d="M442 1070h204q244 0 372 -268q20 -68 20 -124v-8l-8 -8h-260q-9 8 -24 64q-34 68 -148 68h-108q-164 0 -164 -156v-120q73 20 144 20h292v-4l-276 -276h-28q-90 0 -124 -88l-8 -68v-367l-8 -8h-260l-8 8v943q0 244 268 372q69 20 124 20z" />
    <glyph glyph-name="g" unicode="g" horiz-adv-x="1088" 
d="M442 1070h204q244 0 372 -268q20 -68 20 -124v-560q0 -243 -268 -371q-69 -20 -124 -20h-592v4l272 271h272q132 0 160 96l4 32q0 111 -132 128h-160q-293 0 -404 288q-16 55 -16 100v32q0 245 268 372q69 20 124 20zM326 666q0 -110 132 -128h160q71 0 144 -20v120
q0 156 -164 156h-108q-132 0 -160 -96z" />
    <glyph glyph-name="h" unicode="h" horiz-adv-x="1088" 
d="M58 1344h260l8 -8v-232q0 -189 152 -252q72 -41 304 -148q256 -143 256 -408v-288l-8 -8h-260l-8 8v228q0 204 -168 272l-264 128h-4v-628l-8 -8h-260l-8 8v1328z" />
    <glyph glyph-name="i" unicode="i" horiz-adv-x="376" 
d="M58 1344h260l8 -8v-320l-8 -8h-260l-8 8v320zM58 796h260l8 -8v-780l-8 -8h-260l-8 8v780z" />
    <glyph glyph-name="j" unicode="j" horiz-adv-x="1088" 
d="M58 1068h260q8 0 24 -88q42 -96 232 -180q243 -89 376 -232q88 -123 88 -272v-288l-8 -8h-976v4l272 272h436q0 189 -304 296q-227 106 -284 172q-124 127 -124 296v20z" />
    <glyph glyph-name="k" unicode="k" horiz-adv-x="1088" 
d="M58 1360h260l8 -8v-644h4q320 143 360 192q72 74 72 164l4 4h264l8 -8v-12q0 -234 -192 -364v-8q192 -129 192 -364v-288l-8 -8h-260l-8 8v236q0 186 -148 252l-44 28q-122 -44 -196 -132q-48 -39 -48 -168v-216q0 -14 -272 -24l-4 4v1348z" />
    <glyph glyph-name="l" unicode="l" horiz-adv-x="376" 
d="M58 1344h260l8 -8v-1328l-8 -8h-260l-8 8v1328z" />
    <glyph glyph-name="m" unicode="m" horiz-adv-x="1804" 
d="M442 1068h212q127 0 244 -96h8q117 96 244 96h212q244 0 372 -268q20 -69 20 -124v-668l-8 -8h-260l-8 8v620q0 164 -156 164h-124q-118 0 -148 -84l-8 -48v-652l-8 -8h-264l-8 8v652q0 90 -88 124l-68 8h-124q-156 0 -156 -164v-620l-8 -8h-260l-8 8v668q0 244 268 372
q69 20 124 20z" />
    <glyph glyph-name="n" unicode="n" horiz-adv-x="1088" 
d="M442 1068h204q244 0 372 -268q20 -69 20 -124v-668l-8 -8h-260l-8 8v628q0 156 -156 156h-124q-156 0 -156 -156v-628l-8 -8h-260l-8 8v668q0 244 268 372q69 20 124 20z" />
    <glyph glyph-name="o" unicode="o" horiz-adv-x="1088" 
d="M442 1068h204q244 0 372 -268q20 -69 20 -124v-284q0 -244 -268 -372q-69 -20 -124 -20h-204q-244 0 -372 268q-20 69 -20 124v284q0 244 268 372q69 20 124 20zM326 636v-204q0 -156 156 -156h124q156 0 156 156v204q0 156 -156 156h-124q-156 0 -156 -156z" />
    <glyph glyph-name="p" unicode="p" horiz-adv-x="1088" 
d="M58 1070h972l8 -8v-288q0 -332 -420 -484q-288 -114 -288 -268l-4 -55v-232l-8 -8h-260l-8 8v1327zM326 794v-360h4q337 153 368 200q64 75 64 160h-436z" />
    <glyph glyph-name="q" unicode="q" horiz-adv-x="1088" 
d="M58 1070h972l8 -8v-1328l-8 -8h-260l-8 8v232q0 189 -152 252q-72 41 -304 148q-256 143 -256 408v288zM326 794q0 -192 328 -308l104 -52h4v360h-436z" />
    <glyph glyph-name="r" unicode="r" horiz-adv-x="1088" 
d="M442 1068h204q244 0 372 -268q20 -69 20 -124v-8l-8 -8h-260q-9 8 -24 64q-36 68 -140 68h-124q-156 0 -156 -156v-628l-8 -8h-260l-8 8v668q0 244 268 372q69 20 124 20z" />
    <glyph glyph-name="s" unicode="s" horiz-adv-x="1084" 
d="M430 1068h600v-4l-272 -272h-280q-101 0 -136 -60q35 -60 144 -60h160q236 0 368 -252q20 -63 20 -88q-8 -94 -108 -212q-130 -120 -272 -120h-600v4l288 272h264q101 0 136 60q-35 60 -144 60h-160q-236 0 -368 252q-20 63 -20 88q8 94 108 212q130 120 272 120z" />
    <glyph glyph-name="t" unicode="t" horiz-adv-x="1088" 
d="M58 1344h260l8 -8v-368q0 -118 84 -148l48 -8h28l276 -276v-4h-292q-71 0 -144 20v-120q0 -156 164 -156h108q132 0 160 96q0 36 12 36h260l8 -8v-8q0 -244 -268 -372q-69 -20 -124 -20h-204q-244 0 -372 268q-20 69 -20 124v944z" />
    <glyph glyph-name="u" unicode="u" horiz-adv-x="1088" 
d="M58 1068h260l8 -8v-628q0 -156 156 -156h124q156 0 156 156v628l8 8h260l8 -8v-668q0 -244 -268 -372q-69 -20 -124 -20h-204q-244 0 -372 268q-20 69 -20 124v668z" />
    <glyph glyph-name="v" unicode="v" horiz-adv-x="1088" 
d="M58 1076h260l8 -8v-500q0 -175 132 -244l84 -48q167 75 204 176q16 40 16 116v500l8 8h260l8 -8v-564q0 -319 -432 -476q-49 -28 -64 -28q-251 94 -380 220q-112 128 -112 284v564z" />
    <glyph glyph-name="w" unicode="w" horiz-adv-x="1804" 
d="M58 1076h260l8 -8v-480q0 -183 100 -240q45 -38 120 -72q216 95 216 264v528l8 8h264l8 -8v-528q0 -169 216 -264q155 71 200 164q20 48 20 148v480l8 8h260l8 -8v-564q0 -318 -432 -476q-50 -28 -68 -28q-274 117 -352 192q-84 -80 -356 -192q-262 102 -356 192
q-140 134 -140 312v564z" />
    <glyph glyph-name="x" unicode="x" horiz-adv-x="1088" 
d="M58 1076h260l8 -8v-100q0 -183 136 -248l84 -48q208 110 208 208q8 34 8 88v100l8 8h260l8 -8v-152q0 -247 -212 -380v-4q212 -128 212 -372v-152l-8 -8h-256l-4 4h-4q0 197 -32 248q-54 85 -188 140v4q-104 -43 -180 -124q-44 -51 -44 -268l-4 -4h-260l-8 8v152
q0 244 212 372v4q-212 133 -212 380v152z" />
    <glyph glyph-name="y" unicode="y" horiz-adv-x="1088" 
d="M58 1068h260l8 -8v-216q0 -184 96 -236q59 -53 124 -72q151 65 192 156q24 42 24 140v228l8 8h260l8 -8v-288q0 -339 -440 -492q-272 -111 -272 -276l-4 -4h-264l-8 8v20q0 227 208 360v4q-208 150 -208 368v300z" />
    <glyph glyph-name="z" unicode="z" horiz-adv-x="1088" 
d="M54 1072v4h976l8 -8v-152q0 -332 -408 -480q-190 -85 -252 -148l-4 -12h388l272 -272v-4h-976l-8 8v152q0 306 352 448q250 107 312 184l4 4v4h-392z" />
    <glyph glyph-name="braceleft" unicode="{" horiz-adv-x="636" 
d="M574 1686h4l8 -8v-264l-60 -20q-68 -39 -68 -124v-264q0 -146 -100 -268q100 -123 100 -268v-264q0 -98 88 -132q40 -4 40 -12v-264l-8 -8h-4q-218 0 -352 220q-44 93 -44 184v272q0 101 -104 128q-24 5 -24 12v264l72 28q56 46 56 112v272q0 251 256 376q68 28 140 28z
" />
    <glyph glyph-name="bar" unicode="|" horiz-adv-x="376" 
d="M58 1686h260l8 -8v-1880l-8 -8h-260l-8 8v1880z" />
    <glyph glyph-name="braceright" unicode="}" horiz-adv-x="636" 
d="M58 1686h4q218 0 352 -220q44 -94 44 -184v-272q0 -102 104 -128q24 -6 24 -12v-264l-72 -28q-56 -47 -56 -112v-272q0 -247 -248 -372q-68 -32 -148 -32h-4l-8 8v264l60 20q68 38 68 124v264q0 145 100 268q-100 122 -100 268v264q0 98 -88 132q-40 4 -40 12v264z" />
    <glyph glyph-name="asciitilde" unicode="~" horiz-adv-x="1552" 
d="M422 1067h36q61 0 524 -128l124 -32q88 0 132 96h4q251 -66 260 -76q-51 -153 -136 -204q-109 -92 -236 -92h-36q-61 0 -524 128l-124 32q-88 0 -132 -96h-4q-251 65 -260 76q14 95 144 216q120 80 228 80z" />
    <glyph glyph-name="Adieresis" unicode="&#xc4;" horiz-adv-x="1366" 
 />
    <glyph glyph-name="Aring" unicode="&#xc5;" horiz-adv-x="1366" 
 />
    <glyph glyph-name="Ccedilla" unicode="&#xc7;" horiz-adv-x="1479" 
 />
    <glyph glyph-name="Eacute" unicode="&#xc9;" horiz-adv-x="1366" 
 />
    <glyph glyph-name="Ntilde" unicode="&#xd1;" horiz-adv-x="1479" 
 />
    <glyph glyph-name="Odieresis" unicode="&#xd6;" horiz-adv-x="1593" 
 />
    <glyph glyph-name="Udieresis" unicode="&#xdc;" horiz-adv-x="1479" 
 />
    <glyph glyph-name="aacute" unicode="&#xe1;" 
 />
    <glyph glyph-name="agrave" unicode="&#xe0;" 
 />
    <glyph glyph-name="acircumflex" unicode="&#xe2;" 
 />
    <glyph glyph-name="adieresis" unicode="&#xe4;" 
 />
    <glyph glyph-name="atilde" unicode="&#xe3;" 
 />
    <glyph glyph-name="aring" unicode="&#xe5;" 
 />
    <glyph glyph-name="ccedilla" unicode="&#xe7;" horiz-adv-x="1024" 
 />
    <glyph glyph-name="eacute" unicode="&#xe9;" 
 />
    <glyph glyph-name="egrave" unicode="&#xe8;" 
 />
    <glyph glyph-name="ecircumflex" unicode="&#xea;" 
 />
    <glyph glyph-name="edieresis" unicode="&#xeb;" 
 />
    <glyph glyph-name="iacute" unicode="&#xed;" horiz-adv-x="569" 
 />
    <glyph glyph-name="igrave" unicode="&#xec;" horiz-adv-x="569" 
 />
    <glyph glyph-name="icircumflex" unicode="&#xee;" horiz-adv-x="569" 
 />
    <glyph glyph-name="idieresis" unicode="&#xef;" horiz-adv-x="569" 
 />
    <glyph glyph-name="ntilde" unicode="&#xf1;" 
 />
    <glyph glyph-name="oacute" unicode="&#xf3;" 
 />
    <glyph glyph-name="ograve" unicode="&#xf2;" 
 />
    <glyph glyph-name="ocircumflex" unicode="&#xf4;" 
 />
    <glyph glyph-name="odieresis" unicode="&#xf6;" 
 />
    <glyph glyph-name="otilde" unicode="&#xf5;" 
 />
    <glyph glyph-name="uacute" unicode="&#xfa;" 
 />
    <glyph glyph-name="ugrave" unicode="&#xf9;" 
 />
    <glyph glyph-name="ucircumflex" unicode="&#xfb;" 
 />
    <glyph glyph-name="udieresis" unicode="&#xfc;" 
 />
    <glyph glyph-name="dagger" unicode="&#x2020;" 
 />
    <glyph glyph-name="degree" unicode="&#xb0;" horiz-adv-x="819" 
 />
    <glyph glyph-name="cent" unicode="&#xa2;" 
 />
    <glyph glyph-name="sterling" unicode="&#xa3;" 
 />
    <glyph glyph-name="section" unicode="&#xa7;" 
 />
    <glyph glyph-name="bullet" unicode="&#x2022;" horiz-adv-x="717" 
 />
    <glyph glyph-name="paragraph" unicode="&#xb6;" horiz-adv-x="1100" 
 />
    <glyph glyph-name="germandbls" unicode="&#xdf;" horiz-adv-x="1251" 
 />
    <glyph glyph-name="registered" unicode="&#xae;" horiz-adv-x="1509" 
 />
    <glyph glyph-name="copyright" unicode="&#xa9;" horiz-adv-x="1509" 
 />
    <glyph glyph-name="trademark" unicode="&#x2122;" horiz-adv-x="2048" 
 />
    <glyph glyph-name="acute" unicode="&#xb4;" horiz-adv-x="682" 
 />
    <glyph glyph-name="dieresis" unicode="&#xa8;" horiz-adv-x="682" 
 />
    <glyph glyph-name="notequal" unicode="&#x2260;" horiz-adv-x="1124" 
 />
    <glyph glyph-name="AE" unicode="&#xc6;" horiz-adv-x="2048" 
 />
    <glyph glyph-name="Oslash" unicode="&#xd8;" horiz-adv-x="1593" 
 />
    <glyph glyph-name="infinity" unicode="&#x221e;" horiz-adv-x="1460" 
 />
    <glyph glyph-name="plusminus" unicode="&#xb1;" horiz-adv-x="1124" 
 />
    <glyph glyph-name="lessequal" unicode="&#x2264;" horiz-adv-x="1124" 
 />
    <glyph glyph-name="greaterequal" unicode="&#x2265;" horiz-adv-x="1124" 
 />
    <glyph glyph-name="yen" unicode="&#xa5;" 
 />
    <glyph glyph-name="mu" unicode="&#xb5;" horiz-adv-x="1180" 
 />
    <glyph glyph-name="partialdiff" unicode="&#x2202;" horiz-adv-x="1012" 
 />
    <glyph glyph-name="summation" unicode="&#x2211;" horiz-adv-x="1460" 
 />
    <glyph glyph-name="product" unicode="&#x220f;" horiz-adv-x="1686" 
 />
    <glyph glyph-name="glyph155" horiz-adv-x="1124" 
 />
    <glyph glyph-name="integral" unicode="&#x222b;" horiz-adv-x="561" 
 />
    <glyph glyph-name="ordfeminine" unicode="&#xaa;" horiz-adv-x="758" 
 />
    <glyph glyph-name="ordmasculine" unicode="&#xba;" horiz-adv-x="748" 
 />
    <glyph glyph-name="Omega" unicode="&#x2126;" horiz-adv-x="1573" 
 />
    <glyph glyph-name="ae" unicode="&#xe6;" horiz-adv-x="1821" 
 />
    <glyph glyph-name="oslash" unicode="&#xf8;" horiz-adv-x="1251" 
 />
    <glyph glyph-name="questiondown" unicode="&#xbf;" horiz-adv-x="1251" 
 />
    <glyph glyph-name="exclamdown" unicode="&#xa1;" horiz-adv-x="682" 
 />
    <glyph glyph-name="logicalnot" unicode="&#xac;" horiz-adv-x="1196" 
 />
    <glyph glyph-name="radical" unicode="&#x221a;" horiz-adv-x="1124" 
 />
    <glyph glyph-name="florin" unicode="&#x192;" 
 />
    <glyph glyph-name="approxequal" unicode="&#x2248;" horiz-adv-x="1124" 
 />
    <glyph glyph-name="Delta" unicode="&#x2206;" horiz-adv-x="1253" 
 />
    <glyph glyph-name="guillemotleft" unicode="&#xab;" 
 />
    <glyph glyph-name="guillemotright" unicode="&#xbb;" 
 />
    <glyph glyph-name="ellipsis" unicode="&#x2026;" horiz-adv-x="2048" 
 />
    <glyph glyph-name="Agrave" unicode="&#xc0;" horiz-adv-x="1366" 
 />
    <glyph glyph-name="Atilde" unicode="&#xc3;" horiz-adv-x="1366" 
 />
    <glyph glyph-name="Otilde" unicode="&#xd5;" horiz-adv-x="1593" 
 />
    <glyph glyph-name="OE" unicode="&#x152;" horiz-adv-x="2048" 
 />
    <glyph glyph-name="oe" unicode="&#x153;" horiz-adv-x="1933" 
 />
    <glyph glyph-name="endash" unicode="&#x2013;" 
 />
    <glyph glyph-name="emdash" unicode="&#x2014;" horiz-adv-x="2048" 
 />
    <glyph glyph-name="quotedblleft" unicode="&#x201c;" horiz-adv-x="682" 
 />
    <glyph glyph-name="quotedblright" unicode="&#x201d;" horiz-adv-x="682" 
 />
    <glyph glyph-name="quoteleft" unicode="&#x2018;" horiz-adv-x="455" 
 />
    <glyph glyph-name="quoteright" unicode="&#x2019;" horiz-adv-x="455" 
 />
    <glyph glyph-name="divide" unicode="&#xf7;" horiz-adv-x="1124" 
 />
    <glyph glyph-name="lozenge" unicode="&#x25ca;" horiz-adv-x="1012" 
 />
    <glyph glyph-name="ydieresis" unicode="&#xff;" horiz-adv-x="1024" 
 />
    <glyph glyph-name="Ydieresis" unicode="&#x178;" horiz-adv-x="1366" 
 />
    <glyph glyph-name="fraction" unicode="&#x2044;" horiz-adv-x="342" 
 />
    <glyph glyph-name="fraction" unicode="&#x2215;" horiz-adv-x="342" 
 />
    <glyph glyph-name="Euro" unicode="&#x20ac;" 
 />
    <glyph glyph-name="guilsinglleft" unicode="&#x2039;" horiz-adv-x="682" 
 />
    <glyph glyph-name="guilsinglright" unicode="&#x203a;" horiz-adv-x="682" 
 />
    <glyph glyph-name="uniF001" unicode="&#xf001;" horiz-adv-x="1024" 
 />
    <glyph glyph-name="uniF001" unicode="&#xfb01;" horiz-adv-x="1024" 
 />
    <glyph glyph-name="uniF002" unicode="&#xf002;" horiz-adv-x="1024" 
 />
    <glyph glyph-name="uniF002" unicode="&#xfb02;" horiz-adv-x="1024" 
 />
    <glyph glyph-name="daggerdbl" unicode="&#x2021;" 
 />
    <glyph glyph-name="periodcentered" unicode="&#xb7;" horiz-adv-x="569" 
 />
    <glyph glyph-name="periodcentered" unicode="&#x2219;" horiz-adv-x="569" 
 />
    <glyph glyph-name="quotesinglbase" unicode="&#x201a;" horiz-adv-x="455" 
 />
    <glyph glyph-name="quotedblbase" unicode="&#x201e;" horiz-adv-x="682" 
 />
    <glyph glyph-name="perthousand" unicode="&#x2030;" horiz-adv-x="2048" 
 />
    <glyph glyph-name="Acircumflex" unicode="&#xc2;" horiz-adv-x="1366" 
 />
    <glyph glyph-name="Ecircumflex" unicode="&#xca;" horiz-adv-x="1366" 
 />
    <glyph glyph-name="Aacute" unicode="&#xc1;" horiz-adv-x="1366" 
 />
    <glyph glyph-name="Edieresis" unicode="&#xcb;" horiz-adv-x="1366" 
 />
    <glyph glyph-name="Egrave" unicode="&#xc8;" horiz-adv-x="1366" 
 />
    <glyph glyph-name="Iacute" unicode="&#xcd;" horiz-adv-x="569" 
 />
    <glyph glyph-name="Icircumflex" unicode="&#xce;" horiz-adv-x="569" 
 />
    <glyph glyph-name="Idieresis" unicode="&#xcf;" horiz-adv-x="569" 
 />
    <glyph glyph-name="Igrave" unicode="&#xcc;" horiz-adv-x="569" 
 />
    <glyph glyph-name="Oacute" unicode="&#xd3;" horiz-adv-x="1593" 
 />
    <glyph glyph-name="Ocircumflex" unicode="&#xd4;" horiz-adv-x="1593" 
 />
    <glyph glyph-name="Ograve" unicode="&#xd2;" horiz-adv-x="1593" 
 />
    <glyph glyph-name="Uacute" unicode="&#xda;" horiz-adv-x="1479" 
 />
    <glyph glyph-name="Ucircumflex" unicode="&#xdb;" horiz-adv-x="1479" 
 />
    <glyph glyph-name="Ugrave" unicode="&#xd9;" horiz-adv-x="1479" 
 />
    <glyph glyph-name="dotlessi" unicode="&#x131;" horiz-adv-x="569" 
 />
    <glyph glyph-name="circumflex" unicode="&#x2c6;" horiz-adv-x="682" 
 />
    <glyph glyph-name="tilde" unicode="&#x2dc;" horiz-adv-x="682" 
 />
    <glyph glyph-name="uni02C9" unicode="&#x2c9;" horiz-adv-x="682" 
 />
    <glyph glyph-name="breve" unicode="&#x2d8;" horiz-adv-x="682" 
 />
    <glyph glyph-name="dotaccent" unicode="&#x2d9;" horiz-adv-x="682" 
 />
    <glyph glyph-name="ring" unicode="&#x2da;" horiz-adv-x="682" 
 />
    <glyph glyph-name="cedilla" unicode="&#xb8;" horiz-adv-x="682" 
 />
    <glyph glyph-name="hungarumlaut" unicode="&#x2dd;" horiz-adv-x="682" 
 />
    <glyph glyph-name="ogonek" unicode="&#x2db;" horiz-adv-x="682" 
 />
    <glyph glyph-name="caron" unicode="&#x2c7;" horiz-adv-x="682" 
 />
    <glyph glyph-name="Lslash" unicode="&#x141;" 
 />
    <glyph glyph-name="lslash" unicode="&#x142;" horiz-adv-x="455" 
 />
    <glyph glyph-name="Scaron" unicode="&#x160;" horiz-adv-x="1366" 
 />
    <glyph glyph-name="scaron" unicode="&#x161;" horiz-adv-x="1024" 
 />
    <glyph glyph-name="Zcaron" unicode="&#x17d;" horiz-adv-x="1251" 
 />
    <glyph glyph-name="zcaron" unicode="&#x17e;" horiz-adv-x="1024" 
 />
    <glyph glyph-name="brokenbar" unicode="&#xa6;" horiz-adv-x="532" 
 />
    <glyph glyph-name="Eth" unicode="&#xd0;" horiz-adv-x="1479" 
 />
    <glyph glyph-name="eth" unicode="&#xf0;" 
 />
    <glyph glyph-name="Yacute" unicode="&#xdd;" horiz-adv-x="1366" 
 />
    <glyph glyph-name="yacute" unicode="&#xfd;" horiz-adv-x="1024" 
 />
    <glyph glyph-name="Thorn" unicode="&#xde;" horiz-adv-x="1366" 
 />
    <glyph glyph-name="thorn" unicode="&#xfe;" 
 />
    <glyph glyph-name="minus" unicode="&#x2212;" horiz-adv-x="1196" 
 />
    <glyph glyph-name="multiply" unicode="&#xd7;" horiz-adv-x="1196" 
 />
    <glyph glyph-name="uni00B9" unicode="&#xb9;" horiz-adv-x="682" 
 />
    <glyph glyph-name="uni00B2" unicode="&#xb2;" horiz-adv-x="682" 
 />
    <glyph glyph-name="uni00B3" unicode="&#xb3;" horiz-adv-x="682" 
 />
    <glyph glyph-name="onehalf" unicode="&#xbd;" horiz-adv-x="1708" 
 />
    <glyph glyph-name="onequarter" unicode="&#xbc;" horiz-adv-x="1708" 
 />
    <glyph glyph-name="threequarters" unicode="&#xbe;" horiz-adv-x="1708" 
 />
    <glyph glyph-name="franc" unicode="&#x20a3;" 
 />
    <glyph glyph-name="Gbreve" unicode="&#x11e;" horiz-adv-x="1593" 
 />
    <glyph glyph-name="gbreve" unicode="&#x11f;" 
 />
    <glyph glyph-name="Idotaccent" unicode="&#x130;" horiz-adv-x="569" 
 />
    <glyph glyph-name="Scedilla" unicode="&#x15e;" horiz-adv-x="1366" 
 />
    <glyph glyph-name="scedilla" unicode="&#x15f;" horiz-adv-x="1024" 
 />
    <glyph glyph-name="Cacute" unicode="&#x106;" horiz-adv-x="1479" 
 />
    <glyph glyph-name="cacute" unicode="&#x107;" horiz-adv-x="1024" 
 />
    <glyph glyph-name="Ccaron" unicode="&#x10c;" horiz-adv-x="1479" 
 />
    <glyph glyph-name="ccaron" unicode="&#x10d;" horiz-adv-x="1024" 
 />
    <glyph glyph-name="dcroat" unicode="&#x111;" 
 />
    <glyph glyph-name="currency" unicode="&#xa4;" 
 />
    <glyph glyph-name="macron" unicode="&#xaf;" horiz-adv-x="1131" 
 />
    <glyph glyph-name="Amacron" unicode="&#x100;" horiz-adv-x="1366" 
 />
    <glyph glyph-name="amacron" unicode="&#x101;" 
 />
    <glyph glyph-name="Abreve" unicode="&#x102;" horiz-adv-x="1366" 
 />
    <glyph glyph-name="abreve" unicode="&#x103;" 
 />
    <glyph glyph-name="Aogonek" unicode="&#x104;" horiz-adv-x="1366" 
 />
    <glyph glyph-name="aogonek" unicode="&#x105;" 
 />
    <glyph glyph-name="Ccircumflex" unicode="&#x108;" horiz-adv-x="1479" 
 />
    <glyph glyph-name="ccircumflex" unicode="&#x109;" horiz-adv-x="1024" 
 />
    <glyph glyph-name="Cdotaccent" unicode="&#x10a;" horiz-adv-x="1479" 
 />
    <glyph glyph-name="cdotaccent" unicode="&#x10b;" horiz-adv-x="1024" 
 />
    <glyph glyph-name="Dcaron" unicode="&#x10e;" horiz-adv-x="1479" 
 />
    <glyph glyph-name="dcaron" unicode="&#x10f;" horiz-adv-x="1259" 
 />
    <glyph glyph-name="Dcroat" unicode="&#x110;" horiz-adv-x="1479" 
 />
    <glyph glyph-name="Emacron" unicode="&#x112;" horiz-adv-x="1366" 
 />
    <glyph glyph-name="emacron" unicode="&#x113;" 
 />
    <glyph glyph-name="Ebreve" unicode="&#x114;" horiz-adv-x="1366" 
 />
    <glyph glyph-name="ebreve" unicode="&#x115;" 
 />
    <glyph glyph-name="Edotaccent" unicode="&#x116;" horiz-adv-x="1366" 
 />
    <glyph glyph-name="edotaccent" unicode="&#x117;" 
 />
    <glyph glyph-name="Eogonek" unicode="&#x118;" horiz-adv-x="1366" 
 />
    <glyph glyph-name="eogonek" unicode="&#x119;" 
 />
    <glyph glyph-name="Ecaron" unicode="&#x11a;" horiz-adv-x="1366" 
 />
    <glyph glyph-name="ecaron" unicode="&#x11b;" 
 />
    <glyph glyph-name="Gcircumflex" unicode="&#x11c;" horiz-adv-x="1593" 
 />
    <glyph glyph-name="gcircumflex" unicode="&#x11d;" 
 />
    <glyph glyph-name="Gdotaccent" unicode="&#x120;" horiz-adv-x="1593" 
 />
    <glyph glyph-name="gdotaccent" unicode="&#x121;" 
 />
    <glyph glyph-name="Gcommaaccent" unicode="&#x122;" horiz-adv-x="1593" 
 />
    <glyph glyph-name="gcommaaccent" unicode="&#x123;" 
 />
    <glyph glyph-name="Hcircumflex" unicode="&#x124;" horiz-adv-x="1479" 
 />
    <glyph glyph-name="hcircumflex" unicode="&#x125;" 
 />
    <glyph glyph-name="Hbar" unicode="&#x126;" horiz-adv-x="1479" 
 />
    <glyph glyph-name="hbar" unicode="&#x127;" 
 />
    <glyph glyph-name="Itilde" unicode="&#x128;" horiz-adv-x="569" 
 />
    <glyph glyph-name="itilde" unicode="&#x129;" horiz-adv-x="569" 
 />
    <glyph glyph-name="Imacron" unicode="&#x12a;" horiz-adv-x="569" 
 />
    <glyph glyph-name="imacron" unicode="&#x12b;" horiz-adv-x="569" 
 />
    <glyph glyph-name="Ibreve" unicode="&#x12c;" horiz-adv-x="569" 
 />
    <glyph glyph-name="ibreve" unicode="&#x12d;" horiz-adv-x="569" 
 />
    <glyph glyph-name="Iogonek" unicode="&#x12e;" horiz-adv-x="569" 
 />
    <glyph glyph-name="iogonek" unicode="&#x12f;" horiz-adv-x="455" 
 />
    <glyph glyph-name="IJ" unicode="&#x132;" horiz-adv-x="1505" 
 />
    <glyph glyph-name="ij" unicode="&#x133;" horiz-adv-x="909" 
 />
    <glyph glyph-name="Jcircumflex" unicode="&#x134;" horiz-adv-x="1024" 
 />
    <glyph glyph-name="jcircumflex" unicode="&#x135;" horiz-adv-x="455" 
 />
    <glyph glyph-name="Kcommaaccent" unicode="&#x136;" horiz-adv-x="1366" 
 />
    <glyph glyph-name="kcommaaccent" unicode="&#x137;" horiz-adv-x="1024" 
 />
    <glyph glyph-name="kgreenlandic" unicode="&#x138;" horiz-adv-x="1024" 
 />
    <glyph glyph-name="Lacute" unicode="&#x139;" 
 />
    <glyph glyph-name="lacute" unicode="&#x13a;" horiz-adv-x="455" 
 />
    <glyph glyph-name="Lcommaaccent" unicode="&#x13b;" 
 />
    <glyph glyph-name="lcommaaccent" unicode="&#x13c;" horiz-adv-x="455" 
 />
    <glyph glyph-name="Lcaron" unicode="&#x13d;" 
 />
    <glyph glyph-name="lcaron" unicode="&#x13e;" horiz-adv-x="597" 
 />
    <glyph glyph-name="Ldot" unicode="&#x13f;" 
 />
    <glyph glyph-name="ldot" unicode="&#x140;" horiz-adv-x="684" 
 />
    <glyph glyph-name="Nacute" unicode="&#x143;" horiz-adv-x="1479" 
 />
    <glyph glyph-name="nacute" unicode="&#x144;" 
 />
    <glyph glyph-name="Ncommaaccent" unicode="&#x145;" horiz-adv-x="1479" 
 />
    <glyph glyph-name="ncommaaccent" unicode="&#x146;" 
 />
    <glyph glyph-name="Ncaron" unicode="&#x147;" horiz-adv-x="1479" 
 />
    <glyph glyph-name="ncaron" unicode="&#x148;" 
 />
    <glyph glyph-name="napostrophe" unicode="&#x149;" horiz-adv-x="1237" 
 />
    <glyph glyph-name="Eng" unicode="&#x14a;" horiz-adv-x="1481" 
 />
    <glyph glyph-name="eng" unicode="&#x14b;" 
 />
    <glyph glyph-name="Omacron" unicode="&#x14c;" horiz-adv-x="1593" 
 />
    <glyph glyph-name="omacron" unicode="&#x14d;" 
 />
    <glyph glyph-name="Obreve" unicode="&#x14e;" horiz-adv-x="1593" 
 />
    <glyph glyph-name="obreve" unicode="&#x14f;" 
 />
    <glyph glyph-name="Ohungarumlaut" unicode="&#x150;" horiz-adv-x="1593" 
 />
    <glyph glyph-name="ohungarumlaut" unicode="&#x151;" 
 />
    <glyph glyph-name="Racute" unicode="&#x154;" horiz-adv-x="1479" 
 />
    <glyph glyph-name="racute" unicode="&#x155;" horiz-adv-x="682" 
 />
    <glyph glyph-name="Rcommaaccent" unicode="&#x156;" horiz-adv-x="1479" 
 />
    <glyph glyph-name="rcommaaccent" unicode="&#x157;" horiz-adv-x="682" 
 />
    <glyph glyph-name="Rcaron" unicode="&#x158;" horiz-adv-x="1479" 
 />
    <glyph glyph-name="rcaron" unicode="&#x159;" horiz-adv-x="682" 
 />
    <glyph glyph-name="Sacute" unicode="&#x15a;" horiz-adv-x="1366" 
 />
    <glyph glyph-name="sacute" unicode="&#x15b;" horiz-adv-x="1024" 
 />
    <glyph glyph-name="Scircumflex" unicode="&#x15c;" horiz-adv-x="1366" 
 />
    <glyph glyph-name="scircumflex" unicode="&#x15d;" horiz-adv-x="1024" 
 />
    <glyph glyph-name="Tcommaaccent" unicode="&#x162;" horiz-adv-x="1251" 
 />
    <glyph glyph-name="tcommaaccent" unicode="&#x163;" horiz-adv-x="569" 
 />
    <glyph glyph-name="Tcaron" unicode="&#x164;" horiz-adv-x="1251" 
 />
    <glyph glyph-name="tcaron" unicode="&#x165;" horiz-adv-x="768" 
 />
    <glyph glyph-name="Tbar" unicode="&#x166;" horiz-adv-x="1251" 
 />
    <glyph glyph-name="tbar" unicode="&#x167;" horiz-adv-x="569" 
 />
    <glyph glyph-name="Utilde" unicode="&#x168;" horiz-adv-x="1479" 
 />
    <glyph glyph-name="utilde" unicode="&#x169;" 
 />
    <glyph glyph-name="Umacron" unicode="&#x16a;" horiz-adv-x="1479" 
 />
    <glyph glyph-name="umacron" unicode="&#x16b;" 
 />
    <glyph glyph-name="Ubreve" unicode="&#x16c;" horiz-adv-x="1479" 
 />
    <glyph glyph-name="ubreve" unicode="&#x16d;" 
 />
    <glyph glyph-name="Uring" unicode="&#x16e;" horiz-adv-x="1479" 
 />
    <glyph glyph-name="uring" unicode="&#x16f;" 
 />
    <glyph glyph-name="Uhungarumlaut" unicode="&#x170;" horiz-adv-x="1479" 
 />
    <glyph glyph-name="uhungarumlaut" unicode="&#x171;" 
 />
    <glyph glyph-name="Uogonek" unicode="&#x172;" horiz-adv-x="1479" 
 />
    <glyph glyph-name="uogonek" unicode="&#x173;" 
 />
    <glyph glyph-name="Wcircumflex" unicode="&#x174;" horiz-adv-x="1933" 
 />
    <glyph glyph-name="wcircumflex" unicode="&#x175;" horiz-adv-x="1479" 
 />
    <glyph glyph-name="Ycircumflex" unicode="&#x176;" horiz-adv-x="1366" 
 />
    <glyph glyph-name="ycircumflex" unicode="&#x177;" horiz-adv-x="1024" 
 />
    <glyph glyph-name="Zacute" unicode="&#x179;" horiz-adv-x="1251" 
 />
    <glyph glyph-name="zacute" unicode="&#x17a;" horiz-adv-x="1024" 
 />
    <glyph glyph-name="Zdotaccent" unicode="&#x17b;" horiz-adv-x="1251" 
 />
    <glyph glyph-name="zdotaccent" unicode="&#x17c;" horiz-adv-x="1024" 
 />
    <glyph glyph-name="longs" unicode="&#x17f;" horiz-adv-x="455" 
 />
    <glyph glyph-name="Aringacute" unicode="&#x1fa;" horiz-adv-x="1366" 
 />
    <glyph glyph-name="aringacute" unicode="&#x1fb;" 
 />
    <glyph glyph-name="AEacute" unicode="&#x1fc;" horiz-adv-x="2048" 
 />
    <glyph glyph-name="aeacute" unicode="&#x1fd;" horiz-adv-x="1821" 
 />
    <glyph glyph-name="Oslashacute" unicode="&#x1fe;" horiz-adv-x="1593" 
 />
    <glyph glyph-name="oslashacute" unicode="&#x1ff;" horiz-adv-x="1251" 
 />
    <glyph glyph-name="tonos" unicode="&#x384;" horiz-adv-x="682" 
 />
    <glyph glyph-name="dieresistonos" unicode="&#x385;" horiz-adv-x="682" 
 />
    <glyph glyph-name="Alphatonos" unicode="&#x386;" horiz-adv-x="1367" 
 />
    <glyph glyph-name="anoteleia" unicode="&#x387;" horiz-adv-x="569" 
 />
    <glyph glyph-name="Epsilontonos" unicode="&#x388;" horiz-adv-x="1606" 
 />
    <glyph glyph-name="Etatonos" unicode="&#x389;" horiz-adv-x="1716" 
 />
    <glyph glyph-name="Iotatonos" unicode="&#x38a;" horiz-adv-x="786" 
 />
    <glyph glyph-name="Omicrontonos" unicode="&#x38c;" horiz-adv-x="1586" 
 />
    <glyph glyph-name="Upsilontonos" unicode="&#x38e;" horiz-adv-x="1752" 
 />
    <glyph glyph-name="Omegatonos" unicode="&#x38f;" horiz-adv-x="1541" 
 />
    <glyph glyph-name="iotadieresistonos" unicode="&#x390;" horiz-adv-x="455" 
 />
    <glyph glyph-name="Alpha" unicode="&#x391;" horiz-adv-x="1366" 
 />
    <glyph glyph-name="Beta" unicode="&#x392;" horiz-adv-x="1366" 
 />
    <glyph glyph-name="Gamma" unicode="&#x393;" horiz-adv-x="1128" 
 />
    <glyph glyph-name="uni0394" unicode="&#x394;" horiz-adv-x="1368" 
 />
    <glyph glyph-name="Epsilon" unicode="&#x395;" horiz-adv-x="1366" 
 />
    <glyph glyph-name="Zeta" unicode="&#x396;" horiz-adv-x="1251" 
 />
    <glyph glyph-name="Eta" unicode="&#x397;" horiz-adv-x="1479" 
 />
    <glyph glyph-name="Theta" unicode="&#x398;" horiz-adv-x="1593" 
 />
    <glyph glyph-name="Iota" unicode="&#x399;" horiz-adv-x="569" 
 />
    <glyph glyph-name="Kappa" unicode="&#x39a;" horiz-adv-x="1366" 
 />
    <glyph glyph-name="Lambda" unicode="&#x39b;" horiz-adv-x="1368" 
 />
    <glyph glyph-name="Mu" unicode="&#x39c;" horiz-adv-x="1706" 
 />
    <glyph glyph-name="Nu" unicode="&#x39d;" horiz-adv-x="1479" 
 />
    <glyph glyph-name="Xi" unicode="&#x39e;" horiz-adv-x="1331" 
 />
    <glyph glyph-name="Omicron" unicode="&#x39f;" horiz-adv-x="1593" 
 />
    <glyph glyph-name="Pi" unicode="&#x3a0;" horiz-adv-x="1479" 
 />
    <glyph glyph-name="Rho" unicode="&#x3a1;" horiz-adv-x="1366" 
 />
    <glyph glyph-name="Sigma" unicode="&#x3a3;" horiz-adv-x="1266" 
 />
    <glyph glyph-name="Tau" unicode="&#x3a4;" horiz-adv-x="1251" 
 />
    <glyph glyph-name="Upsilon" unicode="&#x3a5;" horiz-adv-x="1366" 
 />
    <glyph glyph-name="Phi" unicode="&#x3a6;" horiz-adv-x="1634" 
 />
    <glyph glyph-name="Chi" unicode="&#x3a7;" horiz-adv-x="1366" 
 />
    <glyph glyph-name="Psi" unicode="&#x3a8;" horiz-adv-x="1711" 
 />
    <glyph glyph-name="uni03A9" unicode="&#x3a9;" horiz-adv-x="1531" 
 />
    <glyph glyph-name="Iotadieresis" unicode="&#x3aa;" horiz-adv-x="569" 
 />
    <glyph glyph-name="Upsilondieresis" unicode="&#x3ab;" horiz-adv-x="1366" 
 />
    <glyph glyph-name="alphatonos" unicode="&#x3ac;" horiz-adv-x="1184" 
 />
    <glyph glyph-name="epsilontonos" unicode="&#x3ad;" horiz-adv-x="913" 
 />
    <glyph glyph-name="etatonos" unicode="&#x3ae;" 
 />
    <glyph glyph-name="iotatonos" unicode="&#x3af;" horiz-adv-x="455" 
 />
    <glyph glyph-name="upsilondieresistonos" unicode="&#x3b0;" horiz-adv-x="1120" 
 />
    <glyph glyph-name="alpha" unicode="&#x3b1;" horiz-adv-x="1184" 
 />
    <glyph glyph-name="beta" unicode="&#x3b2;" horiz-adv-x="1178" 
 />
    <glyph glyph-name="gamma" unicode="&#x3b3;" horiz-adv-x="1024" 
 />
    <glyph glyph-name="delta" unicode="&#x3b4;" horiz-adv-x="1140" 
 />
    <glyph glyph-name="epsilon" unicode="&#x3b5;" horiz-adv-x="913" 
 />
    <glyph glyph-name="zeta" unicode="&#x3b6;" horiz-adv-x="903" 
 />
    <glyph glyph-name="eta" unicode="&#x3b7;" 
 />
    <glyph glyph-name="theta" unicode="&#x3b8;" 
 />
    <glyph glyph-name="iota" unicode="&#x3b9;" horiz-adv-x="455" 
 />
    <glyph glyph-name="kappa" unicode="&#x3ba;" horiz-adv-x="1024" 
 />
    <glyph glyph-name="lambda" unicode="&#x3bb;" horiz-adv-x="1024" 
 />
    <glyph glyph-name="uni03BC" unicode="&#x3bc;" horiz-adv-x="1180" 
 />
    <glyph glyph-name="nu" unicode="&#x3bd;" horiz-adv-x="1024" 
 />
    <glyph glyph-name="xi" unicode="&#x3be;" horiz-adv-x="917" 
 />
    <glyph glyph-name="omicron" unicode="&#x3bf;" 
 />
    <glyph glyph-name="pi" unicode="&#x3c0;" horiz-adv-x="1413" 
 />
    <glyph glyph-name="rho" unicode="&#x3c1;" horiz-adv-x="1165" 
 />
    <glyph glyph-name="sigma1" unicode="&#x3c2;" horiz-adv-x="987" 
 />
    <glyph glyph-name="sigma" unicode="&#x3c3;" horiz-adv-x="1264" 
 />
    <glyph glyph-name="tau" unicode="&#x3c4;" horiz-adv-x="809" 
 />
    <glyph glyph-name="upsilon" unicode="&#x3c5;" horiz-adv-x="1120" 
 />
    <glyph glyph-name="phi" unicode="&#x3c6;" horiz-adv-x="1328" 
 />
    <glyph glyph-name="chi" unicode="&#x3c7;" horiz-adv-x="1075" 
 />
    <glyph glyph-name="psi" unicode="&#x3c8;" horiz-adv-x="1460" 
 />
    <glyph glyph-name="omega" unicode="&#x3c9;" horiz-adv-x="1599" 
 />
    <glyph glyph-name="iotadieresis" unicode="&#x3ca;" horiz-adv-x="455" 
 />
    <glyph glyph-name="upsilondieresis" unicode="&#x3cb;" horiz-adv-x="1120" 
 />
    <glyph glyph-name="omicrontonos" unicode="&#x3cc;" 
 />
    <glyph glyph-name="upsilontonos" unicode="&#x3cd;" horiz-adv-x="1120" 
 />
    <glyph glyph-name="omegatonos" unicode="&#x3ce;" horiz-adv-x="1599" 
 />
    <glyph glyph-name="afii10023" unicode="&#x401;" horiz-adv-x="1367" 
 />
    <glyph glyph-name="afii10051" unicode="&#x402;" horiz-adv-x="1771" 
 />
    <glyph glyph-name="afii10052" unicode="&#x403;" horiz-adv-x="1109" 
 />
    <glyph glyph-name="afii10053" unicode="&#x404;" horiz-adv-x="1472" 
 />
    <glyph glyph-name="afii10054" unicode="&#x405;" horiz-adv-x="1366" 
 />
    <glyph glyph-name="afii10055" unicode="&#x406;" horiz-adv-x="569" 
 />
    <glyph glyph-name="afii10056" unicode="&#x407;" horiz-adv-x="569" 
 />
    <glyph glyph-name="afii10057" unicode="&#x408;" horiz-adv-x="1024" 
 />
    <glyph glyph-name="afii10058" unicode="&#x409;" horiz-adv-x="2165" 
 />
    <glyph glyph-name="afii10059" unicode="&#x40a;" horiz-adv-x="2069" 
 />
    <glyph glyph-name="afii10060" unicode="&#x40b;" horiz-adv-x="1749" 
 />
    <glyph glyph-name="afii10061" unicode="&#x40c;" horiz-adv-x="1193" 
 />
    <glyph glyph-name="afii10062" unicode="&#x40e;" horiz-adv-x="1301" 
 />
    <glyph glyph-name="afii10145" unicode="&#x40f;" horiz-adv-x="1472" 
 />
    <glyph glyph-name="afii10017" unicode="&#x410;" horiz-adv-x="1366" 
 />
    <glyph glyph-name="afii10018" unicode="&#x411;" horiz-adv-x="1344" 
 />
    <glyph glyph-name="afii10019" unicode="&#x412;" horiz-adv-x="1366" 
 />
    <glyph glyph-name="afii10020" unicode="&#x413;" horiz-adv-x="1109" 
 />
    <glyph glyph-name="afii10021" unicode="&#x414;" horiz-adv-x="1387" 
 />
    <glyph glyph-name="afii10022" unicode="&#x415;" horiz-adv-x="1366" 
 />
    <glyph glyph-name="afii10024" unicode="&#x416;" horiz-adv-x="1891" 
 />
    <glyph glyph-name="afii10025" unicode="&#x417;" horiz-adv-x="1237" 
 />
    <glyph glyph-name="afii10026" unicode="&#x418;" horiz-adv-x="1472" 
 />
    <glyph glyph-name="afii10027" unicode="&#x419;" horiz-adv-x="1472" 
 />
    <glyph glyph-name="afii10028" unicode="&#x41a;" horiz-adv-x="1193" 
 />
    <glyph glyph-name="afii10029" unicode="&#x41b;" horiz-adv-x="1344" 
 />
    <glyph glyph-name="afii10030" unicode="&#x41c;" horiz-adv-x="1706" 
 />
    <glyph glyph-name="afii10031" unicode="&#x41d;" horiz-adv-x="1479" 
 />
    <glyph glyph-name="afii10032" unicode="&#x41e;" horiz-adv-x="1593" 
 />
    <glyph glyph-name="afii10033" unicode="&#x41f;" horiz-adv-x="1472" 
 />
    <glyph glyph-name="afii10034" unicode="&#x420;" horiz-adv-x="1366" 
 />
    <glyph glyph-name="afii10035" unicode="&#x421;" horiz-adv-x="1479" 
 />
    <glyph glyph-name="afii10036" unicode="&#x422;" horiz-adv-x="1251" 
 />
    <glyph glyph-name="afii10037" unicode="&#x423;" horiz-adv-x="1301" 
 />
    <glyph glyph-name="afii10038" unicode="&#x424;" horiz-adv-x="1557" 
 />
    <glyph glyph-name="afii10039" unicode="&#x425;" horiz-adv-x="1366" 
 />
    <glyph glyph-name="afii10040" unicode="&#x426;" horiz-adv-x="1515" 
 />
    <glyph glyph-name="afii10041" unicode="&#x427;" horiz-adv-x="1365" 
 />
    <glyph glyph-name="afii10042" unicode="&#x428;" horiz-adv-x="1877" 
 />
    <glyph glyph-name="afii10043" unicode="&#x429;" horiz-adv-x="1920" 
 />
    <glyph glyph-name="afii10044" unicode="&#x42a;" horiz-adv-x="1621" 
 />
    <glyph glyph-name="afii10045" unicode="&#x42b;" horiz-adv-x="1813" 
 />
    <glyph glyph-name="afii10046" unicode="&#x42c;" horiz-adv-x="1344" 
 />
    <glyph glyph-name="afii10047" unicode="&#x42d;" horiz-adv-x="1472" 
 />
    <glyph glyph-name="afii10048" unicode="&#x42e;" horiz-adv-x="2069" 
 />
    <glyph glyph-name="afii10049" unicode="&#x42f;" horiz-adv-x="1479" 
 />
    <glyph glyph-name="afii10065" unicode="&#x430;" 
 />
    <glyph glyph-name="afii10066" unicode="&#x431;" horiz-adv-x="1173" 
 />
    <glyph glyph-name="afii10067" unicode="&#x432;" horiz-adv-x="1088" 
 />
    <glyph glyph-name="afii10068" unicode="&#x433;" horiz-adv-x="747" 
 />
    <glyph glyph-name="afii10069" unicode="&#x434;" horiz-adv-x="1195" 
 />
    <glyph glyph-name="afii10070" unicode="&#x435;" 
 />
    <glyph glyph-name="afii10072" unicode="&#x436;" horiz-adv-x="1370" 
 />
    <glyph glyph-name="afii10073" unicode="&#x437;" horiz-adv-x="939" 
 />
    <glyph glyph-name="afii10074" unicode="&#x438;" horiz-adv-x="1144" 
 />
    <glyph glyph-name="afii10075" unicode="&#x439;" horiz-adv-x="1144" 
 />
    <glyph glyph-name="afii10076" unicode="&#x43a;" horiz-adv-x="896" 
 />
    <glyph glyph-name="afii10077" unicode="&#x43b;" horiz-adv-x="1195" 
 />
    <glyph glyph-name="afii10078" unicode="&#x43c;" horiz-adv-x="1408" 
 />
    <glyph glyph-name="afii10079" unicode="&#x43d;" horiz-adv-x="1131" 
 />
    <glyph glyph-name="afii10080" unicode="&#x43e;" 
 />
    <glyph glyph-name="afii10081" unicode="&#x43f;" horiz-adv-x="1109" 
 />
    <glyph glyph-name="afii10082" unicode="&#x440;" 
 />
    <glyph glyph-name="afii10083" unicode="&#x441;" horiz-adv-x="1024" 
 />
    <glyph glyph-name="afii10084" unicode="&#x442;" horiz-adv-x="938" 
 />
    <glyph glyph-name="afii10085" unicode="&#x443;" horiz-adv-x="1024" 
 />
    <glyph glyph-name="afii10086" unicode="&#x444;" horiz-adv-x="1685" 
 />
    <glyph glyph-name="afii10087" unicode="&#x445;" horiz-adv-x="1024" 
 />
    <glyph glyph-name="afii10088" unicode="&#x446;" horiz-adv-x="1173" 
 />
    <glyph glyph-name="afii10089" unicode="&#x447;" horiz-adv-x="1067" 
 />
    <glyph glyph-name="afii10090" unicode="&#x448;" horiz-adv-x="1643" 
 />
    <glyph glyph-name="afii10091" unicode="&#x449;" horiz-adv-x="1685" 
 />
    <glyph glyph-name="afii10092" unicode="&#x44a;" horiz-adv-x="1280" 
 />
    <glyph glyph-name="afii10093" unicode="&#x44b;" horiz-adv-x="1472" 
 />
    <glyph glyph-name="afii10094" unicode="&#x44c;" horiz-adv-x="1067" 
 />
    <glyph glyph-name="afii10095" unicode="&#x44d;" horiz-adv-x="1045" 
 />
    <glyph glyph-name="afii10096" unicode="&#x44e;" horiz-adv-x="1536" 
 />
    <glyph glyph-name="afii10097" unicode="&#x44f;" horiz-adv-x="1109" 
 />
    <glyph glyph-name="afii10071" unicode="&#x451;" 
 />
    <glyph glyph-name="afii10099" unicode="&#x452;" 
 />
    <glyph glyph-name="afii10100" unicode="&#x453;" horiz-adv-x="747" 
 />
    <glyph glyph-name="afii10101" unicode="&#x454;" horiz-adv-x="1045" 
 />
    <glyph glyph-name="afii10102" unicode="&#x455;" horiz-adv-x="1024" 
 />
    <glyph glyph-name="afii10103" unicode="&#x456;" horiz-adv-x="455" 
 />
    <glyph glyph-name="afii10104" unicode="&#x457;" horiz-adv-x="569" 
 />
    <glyph glyph-name="afii10105" unicode="&#x458;" horiz-adv-x="455" 
 />
    <glyph glyph-name="afii10106" unicode="&#x459;" horiz-adv-x="1856" 
 />
    <glyph glyph-name="afii10107" unicode="&#x45a;" horiz-adv-x="1664" 
 />
    <glyph glyph-name="afii10108" unicode="&#x45b;" 
 />
    <glyph glyph-name="afii10109" unicode="&#x45c;" horiz-adv-x="896" 
 />
    <glyph glyph-name="afii10110" unicode="&#x45e;" horiz-adv-x="1024" 
 />
    <glyph glyph-name="afii10193" unicode="&#x45f;" horiz-adv-x="1131" 
 />
    <glyph glyph-name="afii10050" unicode="&#x490;" horiz-adv-x="1001" 
 />
    <glyph glyph-name="afii10098" unicode="&#x491;" horiz-adv-x="842" 
 />
    <glyph glyph-name="Wgrave" unicode="&#x1e80;" horiz-adv-x="1933" 
 />
    <glyph glyph-name="wgrave" unicode="&#x1e81;" horiz-adv-x="1479" 
 />
    <glyph glyph-name="Wacute" unicode="&#x1e82;" horiz-adv-x="1933" 
 />
    <glyph glyph-name="wacute" unicode="&#x1e83;" horiz-adv-x="1479" 
 />
    <glyph glyph-name="Wdieresis" unicode="&#x1e84;" horiz-adv-x="1933" 
 />
    <glyph glyph-name="wdieresis" unicode="&#x1e85;" horiz-adv-x="1479" 
 />
    <glyph glyph-name="Ygrave" unicode="&#x1ef2;" horiz-adv-x="1366" 
 />
    <glyph glyph-name="ygrave" unicode="&#x1ef3;" horiz-adv-x="1024" 
 />
    <glyph glyph-name="afii00208" unicode="&#x2015;" horiz-adv-x="2048" 
 />
    <glyph glyph-name="underscoredbl" unicode="&#x2017;" horiz-adv-x="1131" 
 />
    <glyph glyph-name="quotereversed" unicode="&#x201b;" horiz-adv-x="455" 
 />
    <glyph glyph-name="minute" unicode="&#x2032;" horiz-adv-x="384" 
 />
    <glyph glyph-name="second" unicode="&#x2033;" horiz-adv-x="725" 
 />
    <glyph glyph-name="exclamdbl" unicode="&#x203c;" horiz-adv-x="1024" 
 />
    <glyph glyph-name="uni203E" unicode="&#x203e;" horiz-adv-x="682" 
 />
    <glyph glyph-name="uni207F" unicode="&#x207f;" horiz-adv-x="747" 
 />
    <glyph glyph-name="lira" unicode="&#x20a4;" 
 />
    <glyph glyph-name="peseta" unicode="&#x20a7;" horiz-adv-x="2240" 
 />
    <glyph glyph-name="afii61248" unicode="&#x2105;" horiz-adv-x="1813" 
 />
    <glyph glyph-name="afii61289" unicode="&#x2113;" horiz-adv-x="662" 
 />
    <glyph glyph-name="afii61352" unicode="&#x2116;" horiz-adv-x="2197" 
 />
    <glyph glyph-name="estimated" unicode="&#x212e;" horiz-adv-x="1229" 
 />
    <glyph glyph-name="oneeighth" unicode="&#x215b;" horiz-adv-x="1708" 
 />
    <glyph glyph-name="threeeighths" unicode="&#x215c;" horiz-adv-x="1708" 
 />
    <glyph glyph-name="fiveeighths" unicode="&#x215d;" horiz-adv-x="1708" 
 />
    <glyph glyph-name="seveneighths" unicode="&#x215e;" horiz-adv-x="1708" 
 />
    <glyph glyph-name="arrowleft" unicode="&#x2190;" horiz-adv-x="2048" 
 />
    <glyph glyph-name="arrowup" unicode="&#x2191;" horiz-adv-x="1024" 
 />
    <glyph glyph-name="arrowright" unicode="&#x2192;" horiz-adv-x="2048" 
 />
    <glyph glyph-name="arrowdown" unicode="&#x2193;" horiz-adv-x="1024" 
 />
    <glyph glyph-name="arrowboth" unicode="&#x2194;" horiz-adv-x="2048" 
 />
    <glyph glyph-name="arrowupdn" unicode="&#x2195;" horiz-adv-x="1024" 
 />
    <glyph glyph-name="arrowupdnbse" unicode="&#x21a8;" horiz-adv-x="1024" 
 />
    <glyph glyph-name="orthogonal" unicode="&#x221f;" horiz-adv-x="2005" 
 />
    <glyph glyph-name="intersection" unicode="&#x2229;" horiz-adv-x="1472" 
 />
    <glyph glyph-name="equivalence" unicode="&#x2261;" horiz-adv-x="1195" 
 />
    <glyph glyph-name="house" unicode="&#x2302;" horiz-adv-x="1237" 
 />
    <glyph glyph-name="revlogicalnot" unicode="&#x2310;" horiz-adv-x="1196" 
 />
    <glyph glyph-name="integraltp" unicode="&#x2320;" horiz-adv-x="1237" 
 />
    <glyph glyph-name="integralbt" unicode="&#x2321;" horiz-adv-x="1237" 
 />
    <glyph glyph-name="SF100000" unicode="&#x2500;" horiz-adv-x="1451" 
 />
    <glyph glyph-name="SF110000" unicode="&#x2502;" horiz-adv-x="1280" 
 />
    <glyph glyph-name="SF010000" unicode="&#x250c;" horiz-adv-x="1451" 
 />
    <glyph glyph-name="SF030000" unicode="&#x2510;" horiz-adv-x="1451" 
 />
    <glyph glyph-name="SF020000" unicode="&#x2514;" horiz-adv-x="1451" 
 />
    <glyph glyph-name="SF040000" unicode="&#x2518;" horiz-adv-x="1451" 
 />
    <glyph glyph-name="SF080000" unicode="&#x251c;" horiz-adv-x="1451" 
 />
    <glyph glyph-name="SF090000" unicode="&#x2524;" horiz-adv-x="1451" 
 />
    <glyph glyph-name="SF060000" unicode="&#x252c;" horiz-adv-x="1451" 
 />
    <glyph glyph-name="SF070000" unicode="&#x2534;" horiz-adv-x="1451" 
 />
    <glyph glyph-name="SF050000" unicode="&#x253c;" horiz-adv-x="1451" 
 />
    <glyph glyph-name="SF430000" unicode="&#x2550;" horiz-adv-x="1451" 
 />
    <glyph glyph-name="SF240000" unicode="&#x2551;" horiz-adv-x="1451" 
 />
    <glyph glyph-name="SF510000" unicode="&#x2552;" horiz-adv-x="1451" 
 />
    <glyph glyph-name="SF520000" unicode="&#x2553;" horiz-adv-x="1451" 
 />
    <glyph glyph-name="SF390000" unicode="&#x2554;" horiz-adv-x="1451" 
 />
    <glyph glyph-name="SF220000" unicode="&#x2555;" horiz-adv-x="1451" 
 />
    <glyph glyph-name="SF210000" unicode="&#x2556;" horiz-adv-x="1451" 
 />
    <glyph glyph-name="SF250000" unicode="&#x2557;" horiz-adv-x="1451" 
 />
    <glyph glyph-name="SF500000" unicode="&#x2558;" horiz-adv-x="1451" 
 />
    <glyph glyph-name="SF490000" unicode="&#x2559;" horiz-adv-x="1451" 
 />
    <glyph glyph-name="SF380000" unicode="&#x255a;" horiz-adv-x="1451" 
 />
    <glyph glyph-name="SF280000" unicode="&#x255b;" horiz-adv-x="1451" 
 />
    <glyph glyph-name="SF270000" unicode="&#x255c;" horiz-adv-x="1451" 
 />
    <glyph glyph-name="SF260000" unicode="&#x255d;" horiz-adv-x="1451" 
 />
    <glyph glyph-name="SF360000" unicode="&#x255e;" horiz-adv-x="1451" 
 />
    <glyph glyph-name="SF370000" unicode="&#x255f;" horiz-adv-x="1451" 
 />
    <glyph glyph-name="SF420000" unicode="&#x2560;" horiz-adv-x="1451" 
 />
    <glyph glyph-name="SF190000" unicode="&#x2561;" horiz-adv-x="1451" 
 />
    <glyph glyph-name="SF200000" unicode="&#x2562;" horiz-adv-x="1451" 
 />
    <glyph glyph-name="SF230000" unicode="&#x2563;" horiz-adv-x="1451" 
 />
    <glyph glyph-name="SF470000" unicode="&#x2564;" horiz-adv-x="1451" 
 />
    <glyph glyph-name="SF480000" unicode="&#x2565;" horiz-adv-x="1451" 
 />
    <glyph glyph-name="SF410000" unicode="&#x2566;" horiz-adv-x="1451" 
 />
    <glyph glyph-name="SF450000" unicode="&#x2567;" horiz-adv-x="1451" 
 />
    <glyph glyph-name="SF460000" unicode="&#x2568;" horiz-adv-x="1451" 
 />
    <glyph glyph-name="SF400000" unicode="&#x2569;" horiz-adv-x="1451" 
 />
    <glyph glyph-name="SF540000" unicode="&#x256a;" horiz-adv-x="1451" 
 />
    <glyph glyph-name="SF530000" unicode="&#x256b;" horiz-adv-x="1451" 
 />
    <glyph glyph-name="SF440000" unicode="&#x256c;" horiz-adv-x="1451" 
 />
    <glyph glyph-name="upblock" unicode="&#x2580;" horiz-adv-x="1451" 
 />
    <glyph glyph-name="dnblock" unicode="&#x2584;" horiz-adv-x="1451" 
 />
    <glyph glyph-name="block" unicode="&#x2588;" horiz-adv-x="1451" 
 />
    <glyph glyph-name="lfblock" unicode="&#x258c;" horiz-adv-x="1451" 
 />
    <glyph glyph-name="rtblock" unicode="&#x2590;" horiz-adv-x="1451" 
 />
    <glyph glyph-name="ltshade" unicode="&#x2591;" horiz-adv-x="1451" 
 />
    <glyph glyph-name="shade" unicode="&#x2592;" horiz-adv-x="1451" 
 />
    <glyph glyph-name="dkshade" unicode="&#x2593;" horiz-adv-x="1493" 
 />
    <glyph glyph-name="filledbox" unicode="&#x25a0;" horiz-adv-x="1237" 
 />
    <glyph glyph-name="H22073" unicode="&#x25a1;" horiz-adv-x="1237" 
 />
    <glyph glyph-name="H18543" unicode="&#x25aa;" horiz-adv-x="726" 
 />
    <glyph glyph-name="H18551" unicode="&#x25ab;" horiz-adv-x="726" 
 />
    <glyph glyph-name="filledrect" unicode="&#x25ac;" horiz-adv-x="2048" 
 />
    <glyph glyph-name="triagup" unicode="&#x25b2;" horiz-adv-x="2027" 
 />
    <glyph glyph-name="triagrt" unicode="&#x25ba;" horiz-adv-x="2027" 
 />
    <glyph glyph-name="triagdn" unicode="&#x25bc;" horiz-adv-x="2027" 
 />
    <glyph glyph-name="triaglf" unicode="&#x25c4;" horiz-adv-x="2027" 
 />
    <glyph glyph-name="circle" unicode="&#x25cb;" horiz-adv-x="1237" 
 />
    <glyph glyph-name="H18533" unicode="&#x25cf;" horiz-adv-x="1237" 
 />
    <glyph glyph-name="invbullet" unicode="&#x25d8;" horiz-adv-x="1237" 
 />
    <glyph glyph-name="invcircle" unicode="&#x25d9;" horiz-adv-x="1237" 
 />
    <glyph glyph-name="openbullet" unicode="&#x25e6;" horiz-adv-x="726" 
 />
    <glyph glyph-name="smileface" unicode="&#x263a;" horiz-adv-x="2091" 
 />
    <glyph glyph-name="invsmileface" unicode="&#x263b;" horiz-adv-x="2155" 
 />
    <glyph glyph-name="sun" unicode="&#x263c;" horiz-adv-x="1877" 
 />
    <glyph glyph-name="female" unicode="&#x2640;" horiz-adv-x="1536" 
 />
    <glyph glyph-name="male" unicode="&#x2642;" horiz-adv-x="1536" 
 />
    <glyph glyph-name="spade" unicode="&#x2660;" horiz-adv-x="1088" 
 />
    <glyph glyph-name="club" unicode="&#x2663;" horiz-adv-x="1344" 
 />
    <glyph glyph-name="heart" unicode="&#x2665;" horiz-adv-x="1216" 
 />
    <glyph glyph-name="diamond" unicode="&#x2666;" horiz-adv-x="1045" 
 />
    <glyph glyph-name="musicalnote" unicode="&#x266a;" horiz-adv-x="1024" 
 />
    <glyph glyph-name="musicalnotedbl" unicode="&#x266b;" horiz-adv-x="1536" 
 />
    <glyph glyph-name="uniF004" unicode="&#xf004;" horiz-adv-x="682" 
 />
    <glyph glyph-name="uniF005" unicode="&#xf005;" horiz-adv-x="682" 
 />
    </font>
</defs>
</svg>
